Coordinates
version=1
nRows=13
nColumns=22
inDegrees=yes

Units are S.I. units (second, meters, Newtons, ...)
If the header above contains a line with 'inDegrees', this indicates whether rotational values are in degrees (yes) or radians (no).

endheader
time	pelvis_tilt	pelvis_list	pelvis_rotation	pelvis_tx	pelvis_ty	pelvis_tz	hip_flexion_r	hip_adduction_r	hip_rotation_r	knee_angle_r	ankle_angle_r	subtalar_angle_r	hip_flexion_l	hip_adduction_l	hip_rotation_l	knee_angle_l	ankle_angle_l	subtalar_angle_l	lumbar_extension	lumbar_bending	lumbar_rotation
      1.79000000	     -2.21918432	      1.22617612	     42.25278752	      0.63424294	      1.06480011	      0.79934272	     23.23293048	     -7.13618522	      9.05526874	    -44.07675195	     10.21682116	      1.57480613	     -0.90654527	     13.77113067	     11.98897389	    -10.98127860	     10.59952833	    -12.75781044	     -5.92613767	     -4.97684552	     -7.23612077
      1.80000000	     -2.11256804	      0.97593953	     43.35168261	      0.63948574	      1.06434640	      0.79211894	     23.74398376	     -6.84112374	      8.94222514	    -42.41398736	     10.24314348	      1.57546013	     -1.50996720	     13.49060497	     13.13726428	    -10.96619171	     10.91611238	    -12.77639484	     -5.88119204	     -4.73974360	     -7.53097438
      1.81000000	     -1.98125037	      0.71943343	     44.41552806	      0.64480731	      1.06382918	      0.78492639	     24.19508142	     -6.49684093	      8.81318995	    -40.67661176	     10.21214814	      1.75640777	     -2.09056254	     13.17312315	     14.23549485	    -10.99531261	     11.26620614	    -12.81205943	     -5.84363631	     -4.49299886	     -7.79586804
      1.82000000	     -1.82544697	      0.45490738	     45.43339008	      0.65021305	      1.06324389	      0.77777862	     24.59055349	     -6.09899736	      8.67818007	    -38.86456566	     10.12642808	      2.09794447	     -2.64102719	     12.82006075	     15.26562386	    -11.07380394	     11.64616730	    -12.85711612	     -5.81303662	     -4.23433661	     -8.02852965
      1.83000000	     -1.63697615	      0.18801080	     46.39877477	      0.65568967	      1.06260149	      0.77064699	     24.92274637	     -5.65266246	      8.52463361	    -36.97976725	      9.99523047	      2.59545690	     -3.17449478	     12.43440711	     16.23083373	    -11.19663903	     12.04371507	    -12.90545895	     -5.80081228	     -3.95701419	     -8.19389176
      1.84000000	     -1.43209548	     -0.08526741	     47.30939056	      0.66124741	      1.06187637	      0.76354125	     25.20828372	     -5.16559301	      8.35802216	    -35.02374565	      9.82954424	      3.19818406	     -3.67417718	     12.02596609	     17.10726001	    -11.36486642	     12.46395397	    -12.95179064	     -5.79067228	     -3.66910892	     -8.32778382
      1.85000000	     -1.21322612	     -0.36354004	     48.16957503	      0.66687062	      1.06106326	      0.75643033	     25.44799971	     -4.65126049	      8.15102338	    -32.99873925	      9.64461437	      3.87535334	     -4.14397270	     11.60121409	     17.90002926	    -11.57375756	     12.90107428	    -12.99370984	     -5.78166561	     -3.37041402	     -8.42507425
      1.86000000	     -0.98515039	     -0.64506572	     48.98183366	      0.67256258	      1.06016069	      0.74928937	     25.64344382	     -4.12016291	      7.88590688	    -30.90947555	      9.44936093	      4.61315122	     -4.58670043	     11.16658824	     18.60327160	    -11.81676530	     13.34433650	    -13.03130542	     -5.77075973	     -3.06390081	     -8.48737273
      1.87000000	     -0.75479191	     -0.93070929	     49.75792871	      0.67831358	      1.05916093	      0.74208972	     25.79863415	     -3.58540322	      7.53712998	    -28.76356221	      9.25985431	      5.38638446	     -5.00021765	     10.72825586	     19.21955050	    -12.09234328	     13.78883693	    -13.06649979	     -5.75165578	     -2.75271990	     -8.52577895
      1.88000000	     -0.52501492	     -1.21727334	     50.50613485	      0.68413287	      1.05806943	      0.73480789	     25.91145019	     -3.05434730	      7.09276627	    -26.57258246	      9.08981814	      6.19192933	     -5.39034686	     10.28995901	     19.75076219	    -12.39518552	     14.22468264	    -13.10209730	     -5.72330268	     -2.44148536	     -8.55066519
      1.89000000	     -0.29740580	     -1.50265197	     51.23861964	      0.69002014	      1.05689224	      0.72740470	     25.97915169	     -2.53365890	      6.54272551	    -24.35200018	      8.95606842	      7.01875557	     -5.76494863	      9.85313458	     20.20773285	    -12.71698731	     14.64531808	    -13.13955102	     -5.68416527	     -2.13215233	     -8.57026387
      1.90000000	     -0.07352546	     -1.77620344	     51.96923490	      0.69597320	      1.05564680	      0.71986244	     25.99238142	     -2.03150796	      5.90147292	    -22.12232784	      8.86562462	      7.85404324	     -6.12883191	      9.42417995	     20.58233017	    -13.06635059	     15.05186013	    -13.18036135	     -5.64273699	     -1.83334248	     -8.61414111
      1.91000000	      0.15831254	     -2.02899149	     52.67946583	      0.70204453	      1.05436774	      0.71214194	     25.94100916	     -1.53362578	      5.19691525	    -19.91616126	      8.83439078	      8.74615933	     -6.52696947	      8.99441674	     20.91290858	    -13.39363853	     15.41452933	    -13.21514642	     -5.60405235	     -1.54445195	     -8.62937134
